<svg width="157" height="156" viewBox="0 0 157 156" fill="none" xmlns="http://www.w3.org/2000/svg">
<rect x="37.527" y="122.999" width="89.8199" height="14.7466" rx="7.37328" fill="#F4F4F4"/>
<rect x="31.4938" y="18" width="83.7872" height="9.38417" rx="4.69209" fill="#F4F4F4"/>
<rect x="122.655" y="18" width="9.38417" height="9.38417" rx="4.69209" fill="#F4F4F4"/>
<path fill-rule="evenodd" clip-rule="evenodd" d="M2 55.0998C2 48.6507 7.228 43.4227 13.6771 43.4227H142.122C148.571 43.4227 153.799 48.6507 153.799 55.0998C153.799 61.5488 148.571 66.7768 142.122 66.7768H141.159C134.178 66.7768 128.518 72.4362 128.518 79.4174V81.3823C128.518 88.3635 134.178 94.0229 141.159 94.0229H145.236C149.966 94.0229 153.799 97.8566 153.799 102.586C153.799 107.315 149.966 111.149 145.236 111.149H10.5629C5.83373 111.149 2 107.315 2 102.586C2 97.8566 5.83373 94.0229 10.5629 94.0229H15.623C23.1468 94.0229 29.246 87.9236 29.246 80.3998C29.246 72.8761 23.1468 66.7768 15.623 66.7768H13.6771C7.228 66.7768 2 61.5488 2 55.0998Z" fill="#F4F4F4"/>
<path d="M49.833 26.5H106.167C108.736 26.5001 111.207 27.4565 113.103 29.1729L113.474 29.5264C115.411 31.4642 116.5 34.0926 116.5 36.833V119.167C116.5 120.524 116.233 121.868 115.714 123.121C115.259 124.218 114.62 125.227 113.824 126.105L113.474 126.474C112.514 127.433 111.375 128.195 110.121 128.714C108.868 129.233 107.524 129.5 106.167 129.5H49.833L49.3252 129.487C48.1418 129.429 46.9758 129.168 45.8789 128.714C44.782 128.259 43.7725 127.62 42.8945 126.824L42.5264 126.474C41.5668 125.514 40.8054 124.375 40.2861 123.121C39.7669 121.868 39.5 120.524 39.5 119.167V36.833C39.5001 34.2638 40.4565 31.7929 42.1729 29.8975L42.5264 29.5264C44.4642 27.5886 47.0926 26.5001 49.833 26.5Z" fill="#F9F9F9" stroke="white"/>
<path d="M100.75 117H55.25C54.388 117 53.5614 116.658 52.9519 116.048C52.3424 115.439 52 114.612 52 113.75C52 112.888 52.3424 112.061 52.9519 111.452C53.5614 110.842 54.388 110.5 55.25 110.5H100.75C101.612 110.5 102.439 110.842 103.048 111.452C103.658 112.061 104 112.888 104 113.75C104 114.612 103.658 115.439 103.048 116.048C102.439 116.658 101.612 117 100.75 117ZM100.75 99.6666H55.25C54.388 99.6666 53.5614 99.3242 52.9519 98.7147C52.3424 98.1052 52 97.2786 52 96.4166C52 95.5547 52.3424 94.728 52.9519 94.1185C53.5614 93.509 54.388 93.1666 55.25 93.1666H100.75C101.612 93.1666 102.439 93.509 103.048 94.1185C103.658 94.728 104 95.5547 104 96.4166C104 97.2786 103.658 98.1052 103.048 98.7147C102.439 99.3242 101.612 99.6666 100.75 99.6666Z" fill="#565A6E"/>
<path d="M78 110.5H55.25C54.388 110.5 53.5614 110.842 52.9519 111.452C52.3424 112.061 52 112.888 52 113.75C52 114.612 52.3424 115.439 52.9519 116.048C53.5614 116.658 54.388 117 55.25 117H78V110.5ZM78 93.1666H55.25C54.388 93.1666 53.5614 93.509 52.9519 94.1185C52.3424 94.728 52 95.5547 52 96.4166C52 97.2786 52.3424 98.1052 52.9519 98.7147C53.5614 99.3242 54.388 99.6666 55.25 99.6666H78V93.1666Z" fill="#565A6E"/>
<path d="M64.4801 78H55.2501C54.3881 78 53.5615 77.6575 52.952 77.0481C52.3425 76.4386 52.0001 75.6119 52.0001 74.75C52.0001 73.888 52.3425 73.0614 52.952 72.4519C53.5615 71.8424 54.3881 71.5 55.2501 71.5H64.4801C65.1926 71.5 65.876 71.2169 66.3798 70.7131C66.8837 70.2092 67.1667 69.5258 67.1667 68.8133C67.1707 68.4573 67.1043 68.1041 66.9712 67.7739C66.8382 67.4437 66.6411 67.143 66.3914 66.8893C66.1417 66.6356 65.8443 66.4337 65.5162 66.2954C65.1882 66.1571 64.8361 66.085 64.4801 66.0833H61.1867C58.7445 66.0833 56.4024 65.1131 54.6755 63.3862C52.9486 61.6593 51.9784 59.3172 51.9784 56.875C51.9784 54.4328 52.9486 52.0906 54.6755 50.3637C56.4024 48.6368 58.7445 47.6666 61.1867 47.6666H70.4167C71.2787 47.6666 72.1053 48.009 72.7148 48.6185C73.3243 49.228 73.6667 50.0547 73.6667 50.9166C73.6667 51.7786 73.3243 52.6052 72.7148 53.2147C72.1053 53.8242 71.2787 54.1666 70.4167 54.1666H61.1867C60.4742 54.1666 59.7908 54.4497 59.287 54.9535C58.7831 55.4574 58.5001 56.1407 58.5001 56.8533C58.5001 58.3786 59.7047 59.5833 61.1867 59.5833H64.4801C66.9223 59.5833 69.2644 60.5535 70.9913 62.2804C72.7182 64.0072 73.6884 66.3494 73.6884 68.7916C73.6884 71.2338 72.7182 73.576 70.9913 75.3029C69.2644 77.0298 66.9223 78 64.4801 78Z" fill="#0F345E"/>
<path d="M62.8334 54.1666C61.9714 54.1666 61.1448 53.8242 60.5353 53.2147C59.9258 52.6052 59.5834 51.7786 59.5834 50.9166V44.4166C59.5834 43.5547 59.9258 42.728 60.5353 42.1185C61.1448 41.509 61.9714 41.1666 62.8334 41.1666C63.6953 41.1666 64.522 41.509 65.1315 42.1185C65.741 42.728 66.0834 43.5547 66.0834 44.4166V50.9166C66.0834 51.7786 65.741 52.6052 65.1315 53.2147C64.522 53.8242 63.6953 54.1666 62.8334 54.1666ZM62.8334 84.5C61.9714 84.5 61.1448 84.1576 60.5353 83.5481C59.9258 82.9386 59.5834 82.1119 59.5834 81.25V74.75C59.5834 73.888 59.9258 73.0614 60.5353 72.4519C61.1448 71.8424 61.9714 71.5 62.8334 71.5C63.6953 71.5 64.522 71.8424 65.1315 72.4519C65.741 73.0614 66.0834 73.888 66.0834 74.75V81.25C66.0834 82.1119 65.741 82.9386 65.1315 83.5481C64.522 84.1576 63.6953 84.5 62.8334 84.5Z" fill="#0F345E"/>
<path d="M62.8333 71.5H55.25C54.3881 71.5 53.5614 71.8424 52.9519 72.4519C52.3424 73.0614 52 73.888 52 74.75C52 75.6119 52.3424 76.4386 52.9519 77.0481C53.5614 77.6576 54.3881 78 55.25 78H59.5833V74.75C59.5833 73.888 59.9258 73.0614 60.5353 72.4519C61.1447 71.8424 61.9714 71.5 62.8333 71.5ZM59.5833 47.8053C57.4534 48.1898 55.5265 49.3112 54.1401 50.9733C52.7537 52.6354 51.9961 54.7322 52 56.8966C52 61.9623 56.121 66.0833 61.1867 66.0833H62.8333V59.5833H61.1867C60.8307 59.5816 60.4785 59.5095 60.1505 59.3712C59.8225 59.2329 59.5251 59.031 59.2753 58.7773C59.0256 58.5235 58.8286 58.2229 58.6955 57.8927C58.5625 57.5625 58.496 57.2093 58.5 56.8533C58.5 56.1407 58.7831 55.4574 59.2869 54.9535C59.7908 54.4497 60.4741 54.1666 61.1867 54.1666H62.8333C61.9714 54.1666 61.1447 53.8242 60.5353 53.2147C59.9258 52.6052 59.5833 51.7786 59.5833 50.9166V47.8053Z" fill="#0F345E"/>
<path d="M62.8334 41.1666C61.9714 41.1666 61.1448 41.509 60.5353 42.1185C59.9258 42.728 59.5834 43.5547 59.5834 44.4166V50.9166C59.5834 52.7106 61.0394 54.1666 62.8334 54.1666V41.1666ZM62.8334 71.5C61.9714 71.5 61.1448 71.8424 60.5353 72.4519C59.9258 73.0614 59.5834 73.888 59.5834 74.75V81.25C59.5834 83.044 61.0394 84.5 62.8334 84.5V71.5Z" fill="#0F345E"/>
<path d="M100.75 82.3333H85.5834C84.7214 82.3333 83.8948 81.9909 83.2853 81.3814C82.6758 80.7719 82.3334 79.9453 82.3334 79.0833C82.3334 78.2214 82.6758 77.3947 83.2853 76.7852C83.8948 76.1757 84.7214 75.8333 85.5834 75.8333H100.75C101.612 75.8333 102.439 76.1757 103.048 76.7852C103.658 77.3947 104 78.2214 104 79.0833C104 79.9453 103.658 80.7719 103.048 81.3814C102.439 81.9909 101.612 82.3333 100.75 82.3333ZM100.75 65H85.5834C84.7214 65 83.8948 64.6576 83.2853 64.0481C82.6758 63.4386 82.3334 62.612 82.3334 61.75C82.3334 60.888 82.6758 60.0614 83.2853 59.4519C83.8948 58.8424 84.7214 58.5 85.5834 58.5H100.75C101.612 58.5 102.439 58.8424 103.048 59.4519C103.658 60.0614 104 60.888 104 61.75C104 62.612 103.658 63.4386 103.048 64.0481C102.439 64.6576 101.612 65 100.75 65Z" fill="#BBBBBB"/>
<path d="M93.1667 75.8333H85.5834C84.7214 75.8333 83.8948 76.1757 83.2853 76.7852C82.6758 77.3947 82.3334 78.2214 82.3334 79.0833C82.3334 79.9453 82.6758 80.7719 83.2853 81.3814C83.8948 81.9909 84.7214 82.3333 85.5834 82.3333H93.1667V75.8333ZM93.1667 58.5H85.5834C84.7214 58.5 83.8948 58.8424 83.2853 59.4519C82.6758 60.0614 82.3334 60.888 82.3334 61.75C82.3334 62.612 82.6758 63.4386 83.2853 64.0481C83.8948 64.6576 84.7214 65 85.5834 65H93.1667V58.5Z" fill="#BBBBBB"/>
</svg>
